<svg
    class="logo"
    xmlns="http://www.w3.org/2000/svg"
    xml:space="preserve"
    viewBox="0 0 370 212"
>
    <defs>
        <clipPath id="a">
            <path d="M0 500h600V0H0z" />
        </clipPath>
    </defs>
    <g
        clip-path="url(#a)"
        class="logo-plato"
        transform="matrix(1.3333 0 0 -1.3333 -453.296 270.605)"
    >
        <path
            fill="#ffbf8a"
            class="logo-color1"
            d="M528.09 149.68s-10.288 40.572-59.615 31.059c0 0 39.056 5.435 53.232-31.995zm-110.23-19.8 19.102-2.434-18.997-5.507 65.062 2.523s5.018-.798 8.711-4.344c3.694-3.548 6.277-2.723 10.282-2.28 4.006.441 24.578 1.545 24.578 1.545s1.313 1.31 0 1.772c-1.314.459-9.137-.367-10.887 1.078-1.75 1.446 11.723 1.648 11.471 3.397-.251 1.75-17.647 1.022-18.367 1.816-.722.793 17.862 2.817 17.783 4.566 0 0-25.962 2.588-28.728 2.063-2.767-.528-9.229-5.37-13.349-6.495-4.118-1.126-66.661 2.3-66.661 2.3"
        />
        <path
            fill="#ffbf8a"
            class="logo-color1"
            d="m546.44 149.46-19.84-2.624 22.163-4.384-58.782 1.814s-3.605-.521-7.518-4.432c-3.911-3.91-12.946-7.853-20.948-5.755-8.001 2.101-17.275 4.331-16.822 12.867.455 8.537 12.344 11.51 21.608 11.646 9.265.133 20.847-10.829 20.847-10.829zm-74.22 50.57c-34.31 0-59.391-39.219-55.29-69.283l8.073.008c0 43.46 26.308 63.451 47.217 69.275"
        />
        <g
            fill="none"
            stroke="#442204"
            class="logo-color2"
            stroke-miterlimit="10"
            stroke-width="1.95"
        >
            <path
                stroke-linecap="round"
                stroke-linejoin="round"
                d="M547.44 150.44c-2.928-.068-55.906-2.255-55.906-2.255s-4.068-.117-6.137 2.281c-2.281 2.643-9.95 8.04-19.807 8.04-9.671 0-20.923-3.951-20.923-12.228 0-8.276 11.252-12.229 20.923-12.229 9.857 0 17.526 5.399 19.807 8.041 2.069 2.398 6.137 2.283 6.137 2.283s54.3-1.858 57.23-1.928c0 0 1.26-12.506-.546-21.297"
            />
            <path
                d="M547.44 150.44c-6.849 29.527-33.317 51.533-64.927 51.533-36.81 0-66.65-29.842-66.65-66.649 0-1.814.072-3.609.214-5.385"
            />
        </g>
        <path
            fill="none"
            stroke="#442204"
            class="logo-color2"
            stroke-linecap="round"
            stroke-linejoin="round"
            stroke-miterlimit="10"
            stroke-width="1.95"
            d="M416.93 121.89s64.449 2.459 66.098 2.564c1.649.107 3.785-.676 5.809-2.244 1.999-1.55 5.611-4.316 8.806-4.38.076-.002.153 0 .227.004l30.494 1.637m-.004 12.969-30.494 1.636a2.832 2.832 0 0 1-.226.004c-3.196-.063-6.807-2.829-8.807-4.38-2.023-1.567-4.16-2.351-5.809-2.243-1.649.105-66.954 2.49-66.954 2.49m80.96-1.707h31.062m-31.062-4.57h31.062m-3.712 34.92a47.183 47.183 0 0 0 2.22-4.554m-91.08-17.276c.626 25.64 21.607 46.231 47.397 46.231 16.037 0 30.213-7.961 38.793-20.148"
        />
        <path
            fill="none"
            stroke="#442204"
            class="logo-color2"
            stroke-linecap="round"
            stroke-linejoin="round"
            stroke-miterlimit="10"
            stroke-width="1.95"
            d="M482.93 146.94s-10.383 12.812-26.447 6.842"
        />
        <path
            fill="none"
            stroke="#442204"
            class="logo-color2"
            stroke-linecap="round"
            stroke-linejoin="round"
            stroke-miterlimit="10"
            stroke-width="1.147"
            d="M546.09 174.6v-5.229m2.67 2.619h-5.147M434.13 195.9v-5.229m2.68 2.619h-5.146"
        />
    </g>
    <g
        fill="#442204"
        class="logo-firma"
        stroke-width="1.611"
        aria-label="Alkeve"
    >
        <path
            d="m85.15 212.44.17.084c.598-.085 1.11-.426 1.622-1.024.512-.682.768-1.365.768-2.133l.085-.256c0-.853-.426-1.706-1.28-2.73-2.474-2.731-3.669-10.24-3.669-22.613 0-4.096.085-8.277.256-12.63a497.202 497.202 0 0 1 2.133-21.247c2.987.939 5.803 2.39 8.534 4.267 2.73 1.962 4.351 4.266 4.778 6.912.512 3.584 1.621 5.376 3.328 5.376.939 0 1.45-.427 1.707-1.366s.426-2.133.426-3.669c-.341-3.072-2.048-5.717-5.12-8.021-3.157-2.304-7.68-4.523-13.653-6.656 2.731-19.2 4.438-31.146 5.206-35.754 1.536-10.069 2.816-16.64 3.669-19.882.085-.17.085-.768.085-1.707-.17-1.791-.768-2.645-1.621-2.645l-.085-.085c-.598.085-1.366.512-2.304 1.28s-1.792 1.706-2.475 2.645c-.768.939-1.28 1.707-1.365 2.304-.171 1.707-1.963 5.461-5.547 11.35-3.584 5.972-9.642 15.188-18.175 27.732-1.707 2.56-3.072 4.522-4.096 5.888s-1.792 2.389-2.304 2.9c-.512.598-.854.854-1.11.854-1.28-.256-2.133-.341-2.56-.341l-3.413.085c-11.605.256-22.612 1.792-32.852 4.864-9.387 2.73-14.677 5.973-15.872 9.557-.256.853-.426 1.877-.426 3.157.17 1.963 1.365 3.328 3.413 4.011 1.194-.427 1.792-1.11 1.792-2.133 0-.512-.17-1.024-.598-1.536a16.604 16.604 0 0 1-1.365-2.39l1.536-1.109c9.301-6.741 24.405-10.325 45.055-11.434h3.67v.085c0 .853-1.707 3.84-5.12 9.045-5.206 8.107-9.046 14.507-11.435 19.285-2.475 4.779-3.755 8.619-3.755 11.605.342 3.157 1.366 4.693 2.987 4.693.512 0 .939-.17 1.28-.512.427-.341.597-.853.597-1.621s-.341-1.621-.938-2.475c-.427-.512-.683-.938-.683-1.365 0-2.048 1.365-5.973 4.181-11.776 3.243-6.74 7.85-14.677 13.824-23.807 1.11-1.707 1.962-2.645 2.474-2.987l1.024-.256.512.086c4.267.682 10.667 1.365 18.773 3.072 2.73.512 4.267.853 4.693 1.024.427.256.854.512 1.28.682-2.304 19.456-3.413 33.194-3.413 41.13.086 9.813 1.11 16.384 3.157 19.797.683 1.621 1.451 2.39 2.22 2.39zM58.27 141.7c3.585-5.291 7.68-11.179 12.374-17.664s8.789-12.117 12.458-16.896c3.67-4.864 5.803-7.338 6.315-7.594.085 0 .085.256.085.939 0 2.56-.341 6.485-.939 11.605-2.389 19.2-4.096 29.95-4.693 32.681l-.256 1.195c-12.117-2.56-20.565-3.925-25.343-4.267z"
        />
        <path
            d="M98.203 194.093c4.608 0 13.738-5.888 27.818-17.237l16.554-13.397c4.096-3.328 6.315-5.376 6.315-6.144 0-1.024-.256-1.536-.939-1.536-1.194 0-4.352 2.475-9.557 7.339-20.394 19.114-33.876 28.67-40.447 28.67-3.413 0-5.12-1.876-5.12-5.546 0-7.765 4.608-18.943 13.568-33.62 1.28 1.365 2.133 2.218 2.645 2.56.427.256 1.365.426 2.645.426 1.195 0 2.048-.17 2.56-.426 1.11-.512 3.584-3.413 7.424-8.704a633.571 633.571 0 0 0 14.762-20.394c4.352-6.4 6.486-10.752 6.486-13.056 0-1.365-.683-2.048-2.134-2.048-1.024 0-4.18 2.646-9.471 8.021-20.224 20.65-33.024 40.02-38.314 58.026-.768 2.816-1.195 5.46-1.195 7.765 0 3.157.598 5.546 1.878 7.082 1.194 1.45 2.73 2.219 4.522 2.219zm10.752-45.396c6.485-8.704 11.69-15.19 15.615-19.541 3.84-4.352 7.936-8.277 12.117-11.861l-8.703 11.52c-2.134 2.9-4.779 5.802-7.68 9.045-3.84 4.351-7.253 7.509-10.07 9.813z"
        />
        <path
            d="M136.775 205.954c.768 0 1.451-.17 1.878-.597.512-.512.768-.94.768-1.536 0-.683-.256-1.195-.598-1.536-.426-.256-1.45-.939-3.157-1.792l.341-4.523c.598-8.106 4.694-18.687 12.032-31.658 2.56-4.352 4.096-6.485 4.693-6.485 1.366 0 3.67-1.877 6.912-5.632 3.328-3.754 6.827-8.192 10.41-13.14 3.67-4.95 6.827-9.558 9.472-13.74s3.926-6.655 3.926-7.508c0-.768-.342-1.45-1.024-2.048-.598-.598-1.28-.939-2.048-.939-.939.085-2.048.939-3.499 2.645-1.45 1.792-4.778 6.23-9.984 13.568-5.29 7.68-8.789 12.373-10.495 14.165-1.024 1.11-2.134 2.048-3.328 2.987-2.304 1.792-3.926 3.157-4.864 4.096-1.024.938-1.536 1.706-1.536 2.304 0 .511.17.938.427 1.194.256.341.597.683.938.939l1.195 1.024-2.39 4.181c-3.84 6.741-7.167 13.226-9.727 19.626-3.157 7.85-4.779 13.91-4.779 18.176.256 4.18 1.707 6.229 4.437 6.229zm11.69-35.157c.086 1.451 1.366 2.219 3.755 2.219 4.523 0 12.885-2.304 25.173-6.997 4.693-1.792 8.277-3.243 10.752-4.267s4.096-1.877 5.034-2.56c.854-.682 1.28-1.28 1.28-1.962-.085-1.11-.512-1.707-1.365-1.707-.939 0-2.133.597-3.67 1.877-2.132 1.792-5.46 3.755-10.154 5.803a117.143 117.143 0 0 1-14.42 5.546c-5.035 1.622-8.79 2.39-11.435 2.39-2.39 0-3.584-.512-3.584-1.366 0-1.194 1.877-3.071 5.717-5.631 5.461-3.67 10.325-5.803 14.421-6.315 1.707-.17 2.902-.512 3.67-.768.767-.341 1.28-.683 1.45-1.11.17-.34.256-.767.256-1.194 0-1.024-.597-2.133-1.792-3.157-1.11-1.11-2.56-1.621-4.181-1.621-.683 0-1.28.085-1.877.34-.598.172-1.366.684-2.219 1.366a71.438 71.438 0 0 0-3.84 3.413c-8.618 7.766-12.97 13.056-12.97 15.701z"
        />
        <path
            d="M193.094 171.309c1.792 0 4.437-.427 8.021-1.366 3.499-.853 9.899-2.56 19.2-5.034 12.117-3.243 18.858-5.12 20.138-5.632.938-.341 1.621-.683 1.877-1.024s.341-.939.341-1.792c0-1.11-.512-1.706-1.536-1.792-1.365 0-6.4 1.621-15.018 4.779-14.591 5.12-23.551 8.106-27.05 8.874-2.133.512-3.925.768-5.546.768-3.158-.085-4.779-1.024-4.779-2.816 0-.768.256-1.621.768-2.56.427-.938 1.024-1.45 1.707-1.365l2.304.17c2.218.171 4.096-1.109 5.546-3.413 3.499-4.522 5.205-7.68 5.205-9.386 0-.768-.256-1.45-.768-1.963-.597-.426-1.28-.682-2.048-.682-1.023 0-2.474.768-4.437 2.218a36.53 36.53 0 0 0-5.546 5.376c-1.792 2.133-2.987 4.096-3.67 6.059s-1.023 3.584-1.023 5.034c0 3.67 2.133 5.547 6.314 5.547z"
        />
        <path
            d="M245.746 179.757c.853 0 2.048-.768 3.67-2.22 1.535-1.45 3.84-4.01 6.996-7.594 4.95-5.546 10.496-10.666 16.555-15.53s10.154-7.253 12.287-7.253 3.158-.939 3.158-2.73-1.11-2.646-3.414-2.646c-4.18 0-13.823 8.277-29.098 24.832-5.631 5.973-8.789 8.96-9.471 8.96a.775.775 0 0 1-.598-.257c-.426-.256-.597-1.365-.597-3.157.085-2.987.427-5.888.853-8.789.854-6.059 1.622-9.813 2.304-11.434.854-1.536 1.28-2.646 1.28-3.414 0-.853-.426-1.621-1.28-2.389s-1.792-1.195-2.9-1.28c-1.196 0-2.39.427-3.67 1.195s-1.877 1.962-1.877 3.498l.085 1.536c.17 1.28.341 4.608.597 9.984.341 12.373 2.048 18.602 5.12 18.688zm42.746-8.448c1.792 0 4.437-.427 8.02-1.366 3.5-.853 9.9-2.56 19.2-5.034 12.117-3.243 13.296-4.565 20.138-6.53 3.254-1.387 6.71-2.333 6.71-2.333 10.384-4.418 13.026-1.455 13.026-2.308 0-1.11-2.458-3.628-15.703-.503-5.006 2.233-9.75 3.056-18.368 6.213-14.592 5.12-23.551 8.106-27.05 8.874-2.133.512-3.925.768-5.546.768-3.158-.085-4.779-1.024-4.779-2.816 0-.768.256-1.621.768-2.56.427-.938 1.024-1.45 1.707-1.365l2.304.17c2.218.171 4.095-1.109 5.546-3.413 3.499-4.522 5.205-7.68 5.205-9.386 0-.768-.256-1.45-.768-1.963-.597-.426-1.28-.682-2.048-.682-1.024 0-2.474.768-4.437 2.218a36.53 36.53 0 0 0-5.546 5.376c-1.792 2.134-2.987 4.096-3.67 6.059s-1.024 3.584-1.024 5.034c0 3.67 2.134 5.547 6.315 5.547z"
        />
    </g>
</svg>